<svg width="20" height="21" viewBox="0 0 20 21" fill="none" xmlns="http://www.w3.org/2000/svg">
<path d="M6.52333 12.1061C4.95614 12.2068 3.53387 12.8037 2.72684 14.9303C2.63505 15.1729 2.41434 15.3201 2.15692 15.3201C1.72294 15.3201 0.38114 14.2393 -0.00128174 13.9783C-0.000891113 17.1951 1.48075 20.0225 4.99911 20.0225C7.96239 20.0225 9.99911 18.3127 9.99911 15.3275C9.99911 15.2061 9.97372 15.09 9.96122 14.9709L6.52333 12.1061ZM17.8854 0.0224609C17.2933 0.0224609 16.7382 0.28457 16.3147 0.665039C8.32997 7.79785 7.49911 7.96543 7.49911 10.065C7.49911 10.6002 7.62606 11.1104 7.84012 11.5768L10.3331 13.6541C10.6147 13.7244 10.905 13.7725 11.2077 13.7725C13.6339 13.7725 15.0401 11.9963 19.4561 3.75449C19.7444 3.19395 19.9991 2.58848 19.9991 1.95801C19.9991 0.828711 18.9835 0.0224609 17.8854 0.0224609Z" fill="#C0C0C0"/>
</svg>
