<svg width="20" height="15" viewBox="0 0 20 15" fill="none" xmlns="http://www.w3.org/2000/svg">
<path d="M3 6.08007C4.10313 6.08007 5 5.18894 5 4.09289C5 2.99684 4.10313 2.10571 3 2.10571C1.89688 2.10571 1 2.99684 1 4.09289C1 5.18894 1.89688 6.08007 3 6.08007ZM17 6.08007C18.1031 6.08007 19 5.18894 19 4.09289C19 2.99684 18.1031 2.10571 17 2.10571C15.8969 2.10571 15 2.99684 15 4.09289C15 5.18894 15.8969 6.08007 17 6.08007ZM18 7.07366H16C15.45 7.07366 14.9531 7.29411 14.5906 7.65118C15.85 8.33738 16.7437 9.57626 16.9375 11.048H19C19.5531 11.048 20 10.604 20 10.0544V9.06084C20 7.96478 19.1031 7.07366 18 7.07366ZM10 7.07366C11.9344 7.07366 13.5 5.51807 13.5 3.59609C13.5 1.67412 11.9344 0.11853 10 0.11853C8.06563 0.11853 6.5 1.67412 6.5 3.59609C6.5 5.51807 8.06563 7.07366 10 7.07366ZM12.4 8.06725H12.1406C11.4906 8.37774 10.7688 8.56404 10 8.56404C9.23125 8.56404 8.5125 8.37774 7.85938 8.06725H7.6C5.6125 8.06725 4 9.66941 4 11.6442V12.5384C4 13.3612 4.67188 14.0288 5.5 14.0288H14.5C15.3281 14.0288 16 13.3612 16 12.5384V11.6442C16 9.66941 14.3875 8.06725 12.4 8.06725ZM5.40938 7.65118C5.04688 7.29411 4.55 7.07366 4 7.07366H2C0.896875 7.07366 0 7.96478 0 9.06084V10.0544C0 10.604 0.446875 11.048 1 11.048H3.05938C3.25625 9.57626 4.15 8.33738 5.40938 7.65118Z" fill="#C0C0C0"/>
</svg>
