<?xml version="1.0" encoding="UTF-8"?>
<svg fill="none" viewBox="0 0 38 52" xmlns="http://www.w3.org/2000/svg">
<path d="m9.5009 5.3962c0.22176-0.18048 0.43263-0.37397 0.66528-0.53701 0.4653-0.32614 0.9871-0.52834 1.5524-0.58489 1.0436-0.10433 2.0894-0.08261 3.1221 0.08265 0.3979 0.06305 0.7653 0.29786 1.1566 0.41525 0.7545 0.2261 1.2524 0.71966 1.6307 1.3937 0.1804 0.32176 0.2283 0.65878 0.2935 0.99792 0.0587 0.29787 0.1413 0.57184 0.35 0.79793 0.3044 0.33048 0.3088 0.77183 0.4305 1.1697 0.1065 0.35007 0.1891 0.70661 0.274 1.0632 0.0391 0.1696 0.1108 0.2022 0.2608 0.1087 0.2001-0.1218 0.4001-0.1435 0.6414-0.0718 0.9328 0.2783 1.8698 0.5458 2.746 0.9763 0.1022 0.05 0.1979 0.1261 0.2718 0.213 0.8349 0.9871 1.6546 1.9872 2.5003 2.9656 0.4566 0.5283 0.9566 1.0175 1.4676 1.5567 0.0847-0.1304 0.1543-0.2261 0.2109-0.3305 0.1848-0.3348 0.3891-0.6609 0.537-1.011 0.1-0.2391 0.1217-0.5109 0.1652-0.7696 0.1152-0.7001 0.2087-1.4024 0.3414-2.0981 0.0891-0.4696 0.0521-0.924-0.037-1.3871-0.1152-0.58924-0.1783-1.1893-0.3196-1.7698-0.0544-0.22176-0.2674-0.40441-0.4001-0.60878-0.1456-0.2261-0.3522-0.28043-0.6131-0.29786-0.7609-0.05-1.5175-0.13695-2.2785-0.19349-0.0913-0.00651-0.2066 0.0761-0.2805 0.15003-0.2348 0.23265-0.4522 0.48702-0.687 0.71962-0.0609 0.05872-0.1653 0.08048-0.2544 0.10655-0.2152 0.05871-0.4283 0.1261-0.6479 0.15871-0.1174 0.01739-0.3131 0.00871-0.3544-0.05868-0.0826-0.13915-0.1-0.32613-0.1109-0.49573-0.0065-0.1326 0.0674-0.27175 0.0544-0.40223-0.0696-0.6479 0.4674-1.3784 1.1893-1.3458 0.0435 0.00217 0.0956-0.01088 0.1304-0.03699 0.274-0.18915 0.5849-0.19132 0.8958-0.19132 0.4891 0.00217 0.9805 0.03044 1.4697-0.00217 0.3088-0.02172 0.611-0.11738 0.9175-0.01739 0.3088 0.10221 0.6153 0.21309 0.9262 0.31526 0.1457 0.04783 0.3 0.07393 0.4479 0.11742 0.1457 0.04346 0.2892 0.1 0.4348 0.15 0.1174 0.04132 0.2305 0.10004 0.3501 0.11959 0.3087 0.05 0.5457 0.21522 0.7957 0.3957 0.6436 0.46529 0.824 1.1458 0.9023 1.8654 0.2327 2.0937 0.2609 4.1983 0.3261 6.3007 0.0174 0.5218 0.0152 1.0436 0.0457 1.5654 0.0282 0.5066-0.0522 0.9914-0.1979 1.472-0.0391 0.1326-0.1108 0.2543-0.1652 0.3826-0.0978 0.2348-0.1848 0.4718-0.2913 0.7023-0.0479 0.1065-0.1044 0.2457-0.1957 0.2913-0.7197 0.3674-1.448 0.7196-2.1807 1.061-0.0891 0.0413-0.2326 0.0348-0.324-0.0065-1.0066-0.4783-2.0132-0.9545-3.0047-1.4589-0.4435-0.2261-0.8609-0.5044-1.2719-0.7849-0.2304-0.1565-0.4696-0.1435-0.7153-0.1239-0.0652 0.0043-0.137 0.0696-0.1826 0.1261-0.3022 0.3674-0.6109 0.7283-0.8914 1.111-0.1109 0.1522-0.1674 0.3479-0.2305 0.5305-0.2282 0.6631-0.5 1.3154-0.6566 1.9959-0.1174 0.5153-0.1956 1.0784 0.2196 1.5502 0.0935 0.1065 0.1761 0.1435 0.3153 0.1413 0.6283 0 1.1784-0.2739 1.7436-0.487 1.5937-0.6066 3.1939-1.2001 4.7745-1.8394 0.7284-0.2935 1.4046-0.7087 2.1242-1.024 0.6697-0.2935 1.2088-0.761 1.7611-1.2153 0.0848-0.0696 0.1543-0.1805 0.187-0.2849 0.6305-2.1372 1.111-4.3114 1.5263-6.5007 0.0956-0.5088 0.2869-0.998 0.4196-1.5002 0.0782-0.2979 0.1369-0.6044 0.1956-0.9066 0.0848-0.44144 0.1718-0.88496 0.2435-1.3307 0.1044-0.63488 0.1957-1.2741 0.2936-1.9111 0.0086-0.05433 0.0065-0.11088 0.026-0.16088 0.1827-0.48485 0.0848-0.96752-0.0152-1.4458-0.0174-0.08478-0.0717-0.17394-0.1348-0.23482-0.3826-0.3783-0.7501-0.77399-1.1653-1.1132-0.2066-0.16959-0.4979-0.23915-0.7588-0.33698-0.2392-0.09132-0.5044-0.12827-0.7284-0.2457-0.3478-0.1826-0.687-0.39569-1.0023-0.62833-0.2848-0.21088-0.5327-0.47397-0.8066-0.70227-0.2065-0.17172-0.2565-0.40875-0.113-0.65223 0.2196-0.36963 0.6761-0.55658 1.0892-0.40875 0.5327 0.18915 1.0784 0.15871 1.6176 0.10438 0.5414-0.05221 1.0806-0.15221 1.6154-0.26092 0.2696-0.054336 0.5197-0.21742 0.7892-0.26309 0.3479-0.060882 0.7067-0.058714 1.0632-0.069556 0.0631-0.002168 0.1414 0.065219 0.1935 0.11739 0.2566 0.2718 0.4936 0.51095 0.4827 0.96536-0.0174 0.66312 0.1239 1.3284 0.1696 1.9937 0.0478 0.6979 0.3152 1.3241 0.5631 1.9611 0.0913 0.23699 0.1543 0.48923 0.1891 0.74143 0.0913 0.67834 0.1653 1.361 0.2348 2.0437 0.0783 0.78705 0.0218 1.5632-0.2282 2.322-0.0305 0.0934-0.05 0.2-0.0457 0.2978 0.0631 1.8916-0.1979 3.7635-0.3522 5.642-0.1413 1.7307-0.2674 3.4635-0.4283 5.1941-0.0392 0.4218-0.1718 0.8371-0.2957 1.2458-0.0413 0.1327-0.1848 0.2457-0.3022 0.3435-1.6655 1.3611-3.3309 2.7199-5.0028 4.0701-0.1805 0.1456-0.3913 0.2522-0.5936 0.3674-1.9089 1.0828-3.9265 1.9307-5.9572 2.7438-0.9001 0.3609-1.8524 0.5893-2.7742 0.9001-0.3718 0.124-0.7675 0.2501-0.8958 0.7001-0.0196 0.0696-0.037 0.1587-0.0152 0.2218 0.7414 2.0263 0.8262 4.1353 0.7957 6.2594-0.0152 1.0284-0.0391 2.0568-0.0435 3.0852-0.0021 0.4848-0.1087 0.9349-0.3217 1.3719-0.5957 1.2262-1.148 2.4742-1.7633 3.6896-0.3609 0.7131-0.8088 1.3849-1.2175 2.0741-0.0717 0.1196-0.15 0.2392-0.2087 0.3653-0.537 1.1458-1.5785 1.6763-2.6482 2.1546-0.5501 0.2457-1.1327 0.4261-1.7024 0.6305-0.0695 0.0261-0.1543 0.0152-0.2326 0.0174-0.6087 0.0022-1.2175 0.0304-1.822-0.0087-0.5957-0.0392-1.1892-0.1413-1.7806-0.2305-0.10871-0.0174-0.21088-0.0956-0.30875-0.1565-0.42396-0.2761-0.83271-0.5805-1.2741-0.8284-0.57834-0.3261-1.0001-0.8109-1.4371-1.2849-0.69572-0.7566-1.3958-1.5089-2.072-2.2851-0.3457-0.3978-0.65228-0.8327-0.95448-1.2653-0.49352-0.7088-0.96965-1.4306-1.4545-2.1459-0.0261-0.0392-0.05437-0.0783-0.07176-0.1196-0.36959-0.9306-0.76094-1.8524-1.0914-2.796-0.13048-0.3761-0.30658-0.7066-0.55227-1.0023-0.1565-0.1891-0.36525-0.3326-0.54135-0.5066-0.052167-0.0522-0.10216-0.1369-0.10654-0.2087-0.013052-0.2653-0.030441-0.5327 0.002168-0.7936 0.043494-0.3435 0.23048-0.6283 0.51312-0.8196 0.47613-0.3197 0.96098-0.6327 1.5154-0.8153 0.16526-0.0544 0.30441-0.1957 0.47184-0.2501 0.72178-0.2283 1.2914-0.6914 1.872-1.1501 0.20437-0.1609 0.49569-0.2131 0.69572-0.3783 0.21305-0.1718 0.43047-0.1718 0.67183-0.1848 0.33915-0.0174 0.58701 0.1391 0.78267 0.3804 0.21742 0.2653 0.12393 0.5588 0.00871 0.8371-0.2587 0.6197-0.74355 1.0197-1.3132 1.3371-0.0739 0.0413-0.13912 0.1022-0.21739 0.137-0.20658 0.0957-0.26742 0.2631-0.31525 0.4761-0.19136 0.8371 0.02389 1.6046 0.3783 2.3438 0.60007 1.2501 1.2523 2.4742 2.0241 3.6309 0.13481 0.2022 0.31963 0.3805 0.50878 0.5392 0.55006 0.4587 1.0914 0.9348 1.6785 1.3414 0.52179 0.3609 1.0957 0.6523 1.661 0.9436 0.1457 0.0761 0.3523 0.0304 0.5305 0.0544 0.5175 0.0695 1.048 0.1065 1.5481-0.0218 0.4587-0.1174 0.9283-0.2978 1.3175-0.5609 0.2674-0.1826 0.5-0.4913 0.5022-0.9023 0.0022-0.2957 0.1087-0.5914 0.1696-0.887 0.0087-0.037 0.0283-0.0761 0.0283-0.1131-0.0239-0.961 0.187-1.9089 0.0652-2.8851-0.0739-0.5805-0.2022-1.1458-0.3087-1.7155-0.1022-0.5435-0.3066-1.074-0.5022-1.5958-0.174-0.4631-0.3849-0.9132-0.6045-1.3589-0.2391-0.4891-0.4957-0.9718-0.7653-1.4458-0.4457-0.787-1.0958-1.3849-1.8198-1.9089-0.1826-0.1326-0.3891-0.2326-0.5609-0.3783-0.3566-0.2979-0.71749-0.5958-1.0349-0.9306-0.13916-0.1478-0.23699-0.3826-0.25654-0.587-0.05221-0.5718-0.1196-1.1567-0.05872-1.7241 0.05655-0.5283 0.15221-1.0675 0.3957-1.5698 0.11304-0.2326 0.10871-0.5283 0.13698-0.7957 0.04783-0.4696 0.0761-0.9392 0.12393-1.4089 0.00868-0.0891 0.07606-0.1696 0.09996-0.2587 0.0783-0.2739 0.137-0.5522 0.2262-0.8218 0.1869-0.5675 0.3935-1.1284 0.5783-1.6959 0.1131-0.3479 0.1696-0.7001 0.0891-1.074-0.0847-0.4023-0.1217-0.8153-0.1761-1.2241-0.0326-0.2457-0.1456-0.4174-0.3587-0.5653-1.1784-0.8262-2.1612-1.8502-2.9808-3.0308-0.00434-0.0065-0.00867-0.013-0.01305-0.0195-0.64135-0.7393-0.96532-1.6393-1.2914-2.5417-0.05217-0.1434-0.15217-0.2695-0.23265-0.4022-0.47396-0.7892-0.90226-1.5958-0.91965-2.5481-0.01089-0.6001-0.00434-1.2001-0.00434-1.8002 0-0.38703-0.01522-0.76533 0.18477-1.1349 0.11743-0.21959 0.10438-0.50878 0.15655-0.76532 0.02393-0.11305 0.06959-0.22176 0.09566-0.33481 0.08048-0.35224 0.14353-0.70882 0.23481-1.0588 0.08265-0.32393 0.1457-0.66745 0.30003-0.95664 0.25658-0.48264 0.47617-0.98925 0.89359-1.3871 0.40658-0.38702 0.73488-0.85444 1.1001-1.2828 0.30658-0.36092 0.5979-0.73484 0.92837-1.0719 0.50445-0.50874 1.111-0.84576 1.7894-1.1001 0.5088-0.18915 1.0349-0.26959 1.5524-0.40003 0.1565-0.039157 0.3239-0.049999 0.4848-0.049999 0.748-0.004378 1.4958 0.004337 2.2438-0.006547 0.2543-0.004336 0.5065-0.065219 0.7631-0.071724 0.2848-0.006547 0.5718 0.008674 0.8566 0.03261 0.224 0.017389 0.4457 0.071724 0.6675 0.091281 0.0956 0.008716 0.1957-0.030441 0.2935-0.049998 0.387-0.073893 0.7697-0.15654 1.1589-0.21742 0.4956-0.08044 0.9935-0.16088 1.4936-0.20654 0.387-0.034778 0.7783-0.041283 1.1654-0.010842 0.0956 0.0065053 0.2413 0.20216 0.25 0.31959 0.0239 0.36742-0.0043 0.73921-0.0196 1.1088-0.0043 0.13048-0.0391 0.26092-0.0326 0.38919 0.013 0.31742-0.0957 0.43051-0.4044 0.39135-0.7805-0.10216-1.5589-0.21087-2.3394-0.30437-0.1152-0.01305-0.2522 0.01085-0.3566 0.06089-0.3652 0.1761-0.7435 0.24565-1.1501 0.2326-0.6392-0.02173-1.2784 0.0196-1.9155-0.01301-0.5152-0.02611-0.9783 0.10433-1.4436 0.29348-0.9023 0.36746-1.8154 0.70227-2.7156 1.0741-0.4435 0.18478-0.7848 0.51746-1.0762 0.89793-0.1369 0.17827-0.27826 0.35437-0.41742 0.53268-0.09128 0.11521-0.18043 0.23043-0.26959 0.34569 0.00655 0.01305 0.02394 0.03044 0.04133 0.04783zm-0.47613 6.3942c0.00867 0.0739 0.00867 0.1174 0.01955 0.1587 0.18044 0.6153 0.42397 1.1893 0.86315 1.6807 0.26961 0.3 0.50221 0.6153 0.93051 0.6696 0.0957 0.0131 0.2131 0.0066 0.2936-0.0391 0.3304-0.1848 0.65-0.387 0.9718-0.5892 0.0717-0.0457 0.1957-0.1457 0.1848-0.1652-0.0522-0.1044-0.1261-0.2088-0.2196-0.2784-0.0696-0.0521-0.1783-0.0456-0.2674-0.0717-0.2587-0.0782-0.537-0.1239-0.7697-0.25-0.6239-0.3349-1.2284-0.7023-1.8393-1.0567-0.04128-0.0239-0.09349-0.0326-0.16738-0.0587z" fill="#000"/>
</svg>
