<svg width="20" height="17" viewBox="0 0 20 17" fill="none" xmlns="http://www.w3.org/2000/svg">
<path d="M19.7062 11.5797L16.8844 8.72284C16.5094 8.34277 16 8.13057 15.4688 8.13057H12.9906C12.4375 8.13057 11.9906 8.58348 11.9906 9.14408V11.6525C11.9906 12.191 12.2 12.704 12.575 13.0841L15.3969 15.941C15.7875 16.3369 16.4219 16.3369 16.8125 15.941L19.7031 13.0113C20.0969 12.6154 20.0969 11.9756 19.7062 11.5797ZM13.9937 10.9146C13.5781 10.9146 13.2437 10.5757 13.2437 10.1544C13.2437 9.73319 13.5781 9.39429 13.9937 9.39429C14.4094 9.39429 14.7437 9.73319 14.7437 10.1544C14.7437 10.5725 14.4094 10.9146 13.9937 10.9146ZM7 8.1274C9.20938 8.1274 11 6.31258 11 4.07335C11 1.83728 9.20938 0.0224609 7 0.0224609C4.79063 0.0224609 3 1.83728 3 4.07651C3 6.31258 4.79063 8.1274 7 8.1274ZM10.9937 11.6494V9.33412C10.6125 9.22009 10.2156 9.13775 9.8 9.13775H9.27812C8.58437 9.4608 7.8125 9.6445 7 9.6445C6.1875 9.6445 5.41875 9.4608 4.72188 9.13775H4.2C1.88125 9.14091 0 11.0476 0 13.3977V14.7152C0 15.5546 0.671875 16.2355 1.5 16.2355H12.5C12.9844 16.2355 13.4094 15.998 13.6844 15.6369L11.8719 13.7999C11.3062 13.2266 10.9937 12.4633 10.9937 11.6494Z" fill="#C0C0C0"/>
</svg>
