<svg width="20" height="23" viewBox="0 0 20 23" fill="none" xmlns="http://www.w3.org/2000/svg">
<path d="M6.60714 12.8386H4.82143C4.52679 12.8386 4.28571 12.6024 4.28571 12.3136V10.5636C4.28571 10.2749 4.52679 10.0386 4.82143 10.0386H6.60714C6.90179 10.0386 7.14286 10.2749 7.14286 10.5636V12.3136C7.14286 12.6024 6.90179 12.8386 6.60714 12.8386ZM11.4286 12.3136V10.5636C11.4286 10.2749 11.1875 10.0386 10.8929 10.0386H9.10714C8.8125 10.0386 8.57143 10.2749 8.57143 10.5636V12.3136C8.57143 12.6024 8.8125 12.8386 9.10714 12.8386H10.8929C11.1875 12.8386 11.4286 12.6024 11.4286 12.3136ZM15.7143 12.3136V10.5636C15.7143 10.2749 15.4732 10.0386 15.1786 10.0386H13.3929C13.0982 10.0386 12.8571 10.2749 12.8571 10.5636V12.3136C12.8571 12.6024 13.0982 12.8386 13.3929 12.8386H15.1786C15.4732 12.8386 15.7143 12.6024 15.7143 12.3136ZM11.4286 16.5136V14.7636C11.4286 14.4749 11.1875 14.2386 10.8929 14.2386H9.10714C8.8125 14.2386 8.57143 14.4749 8.57143 14.7636V16.5136C8.57143 16.8024 8.8125 17.0386 9.10714 17.0386H10.8929C11.1875 17.0386 11.4286 16.8024 11.4286 16.5136ZM7.14286 16.5136V14.7636C7.14286 14.4749 6.90179 14.2386 6.60714 14.2386H4.82143C4.52679 14.2386 4.28571 14.4749 4.28571 14.7636V16.5136C4.28571 16.8024 4.52679 17.0386 4.82143 17.0386H6.60714C6.90179 17.0386 7.14286 16.8024 7.14286 16.5136ZM15.7143 16.5136V14.7636C15.7143 14.4749 15.4732 14.2386 15.1786 14.2386H13.3929C13.0982 14.2386 12.8571 14.4749 12.8571 14.7636V16.5136C12.8571 16.8024 13.0982 17.0386 13.3929 17.0386H15.1786C15.4732 17.0386 15.7143 16.8024 15.7143 16.5136ZM20 5.13865V20.5386C20 21.698 19.0402 22.6386 17.8571 22.6386H2.14286C0.959821 22.6386 0 21.698 0 20.5386V5.13865C0 3.97927 0.959821 3.03865 2.14286 3.03865H4.28571V0.763647C4.28571 0.474897 4.52679 0.238647 4.82143 0.238647H6.60714C6.90179 0.238647 7.14286 0.474897 7.14286 0.763647V3.03865H12.8571V0.763647C12.8571 0.474897 13.0982 0.238647 13.3929 0.238647H15.1786C15.4732 0.238647 15.7143 0.474897 15.7143 0.763647V3.03865H17.8571C19.0402 3.03865 20 3.97927 20 5.13865ZM17.8571 20.2761V7.23865H2.14286V20.2761C2.14286 20.4205 2.26339 20.5386 2.41071 20.5386H17.5893C17.7366 20.5386 17.8571 20.4205 17.8571 20.2761Z" fill="#C0C0C0"/>
</svg>
