<svg width="20" height="19" viewBox="0 0 20 19" fill="none" xmlns="http://www.w3.org/2000/svg">
<path d="M0 9.05437C0.603175 9.00778 1.19048 8.96118 1.79365 8.93012L3.5873 8.8214L4.03175 8.79034C4.19048 8.79034 4.30159 8.77481 4.42857 8.74374C4.66667 8.68162 4.88889 8.55737 5.07937 8.38652C5.47619 8.04484 5.77778 7.5789 6.03175 7.09743C6.53968 6.10343 6.90476 5.01624 7.20635 3.91351C7.34921 3.35439 7.49206 2.79526 7.60318 2.23614C7.71429 1.67701 7.8254 1.10235 7.90476 0.558758C7.96825 0.201538 8.30159 -0.0469623 8.68254 -0.000368434C8.96825 0.0462254 9.19048 0.263663 9.2381 0.527695V0.558758C9.50794 1.95657 9.77778 3.33886 10.0317 4.73667L10.4127 6.8334L10.7778 8.93012C11.0159 10.3279 11.254 11.7257 11.4603 13.1236C11.5714 13.8225 11.6825 14.5214 11.7937 15.2203C11.9048 15.9192 12 16.6181 12.1111 17.317H10.746C10.873 16.7113 11 16.1366 11.1587 15.562C11.3175 14.9873 11.4921 14.4127 11.6825 13.8535C11.873 13.2944 12.0952 12.7198 12.3333 12.1762C12.5873 11.617 12.8571 11.0734 13.1905 10.5609C13.5238 10.0484 13.9206 9.53584 14.4921 9.14756C14.7778 8.96118 15.1111 8.80587 15.4762 8.79034C15.5556 8.77481 15.6667 8.79034 15.746 8.79034L15.9683 8.80587L16.4127 8.83693L18.2063 8.94565C18.8095 8.99224 19.3968 9.02331 20 9.0699C19.3968 9.11649 18.8095 9.16309 18.2063 9.19415L16.4127 9.30287L15.9683 9.33393L15.746 9.34946C15.6825 9.34946 15.619 9.365 15.5556 9.38053C15.3175 9.42712 15.1111 9.55137 14.9048 9.72221C14.7143 9.89306 14.5397 10.095 14.381 10.3124C14.2222 10.5298 14.0794 10.7783 13.9524 11.0268C13.4444 12.0208 13.0952 13.1236 12.8095 14.2263C12.6667 14.7854 12.5397 15.3445 12.4127 15.9037C12.3016 16.4628 12.1905 17.0374 12.1111 17.5966C12.0476 17.9693 11.6984 18.2178 11.3333 18.1557C11.0317 18.1091 10.8095 17.8917 10.7619 17.6121V17.581C10.619 16.8821 10.4921 16.1832 10.3651 15.4843C10.2381 14.7854 10.0952 14.0865 9.98413 13.3876C9.73016 11.9898 9.49206 10.592 9.2381 9.19415L8.88889 7.09743L8.55556 5.0007C8.33333 3.60289 8.12698 2.20507 7.92064 0.791727H9.26984C9.14286 1.39745 9 1.95657 8.85714 2.54676C8.69841 3.12142 8.52381 3.69608 8.33333 4.2552C8.14286 4.81433 7.92064 5.37346 7.66667 5.93258C7.4127 6.47618 7.14286 7.01977 6.79365 7.54783C6.46032 8.06037 6.06349 8.5729 5.50794 8.94565C5.2381 9.13203 4.90476 9.28734 4.55556 9.33393C4.38095 9.36499 4.19048 9.34946 4.04762 9.34946L3.60317 9.3184L1.80952 9.20968C1.19048 9.14756 0.603175 9.10096 0 9.05437Z" fill="#C0C0C0"/>
</svg>
