<svg width="20" height="21" viewBox="0 0 20 21" fill="none" xmlns="http://www.w3.org/2000/svg">
<path d="M19.0391 12.9707L17.375 12.0098C17.543 11.1036 17.543 10.1739 17.375 9.26761L19.0391 8.30668C19.2305 8.1973 19.3164 7.97074 19.2539 7.7598C18.8203 6.36918 18.082 5.11136 17.1172 4.06449C16.9687 3.90433 16.7266 3.86527 16.5391 3.97465L14.875 4.93558C14.1758 4.33402 13.3711 3.86918 12.5 3.56449V1.64652C12.5 1.42777 12.3477 1.23636 12.1328 1.18949C10.6992 0.869177 9.23046 0.884802 7.86718 1.18949C7.65234 1.23636 7.5 1.42777 7.5 1.64652V3.5684C6.63281 3.87699 5.82812 4.34183 5.12499 4.93949L3.46484 3.97855C3.27343 3.86918 3.03515 3.90433 2.88671 4.0684C1.92187 5.11136 1.18359 6.36918 0.749995 7.76371C0.683589 7.97465 0.773432 8.20121 0.964839 8.31058L2.6289 9.27152C2.46093 10.1778 2.46093 11.1075 2.6289 12.0137L0.964839 12.9746C0.773432 13.084 0.687495 13.3106 0.749995 13.5215C1.18359 14.9121 1.92187 16.17 2.88671 17.2168C3.03515 17.377 3.27734 17.4161 3.46484 17.3067L5.1289 16.3457C5.82812 16.9473 6.63281 17.4121 7.5039 17.7168V19.6387C7.5039 19.8575 7.65625 20.0489 7.87109 20.0957C9.30468 20.416 10.7734 20.4004 12.1367 20.0957C12.3516 20.0489 12.5039 19.8575 12.5039 19.6387V17.7168C13.3711 17.4082 14.1758 16.9434 14.8789 16.3457L16.543 17.3067C16.7344 17.4161 16.9727 17.3809 17.1211 17.2168C18.0859 16.1739 18.8242 14.9161 19.2578 13.5215C19.3164 13.3067 19.2305 13.0801 19.0391 12.9707ZM10 13.7637C8.27734 13.7637 6.875 12.3614 6.875 10.6387C6.875 8.91605 8.27734 7.51371 10 7.51371C11.7227 7.51371 13.125 8.91605 13.125 10.6387C13.125 12.3614 11.7227 13.7637 10 13.7637Z" fill="#C0C0C0"/>
</svg>
